<mxfile host="Electron" agent="Mozilla/5.0 (Windows NT 10.0; Win64; x64) AppleWebKit/537.36 (KHTML, like Gecko) draw.io/27.0.9 Chrome/134.0.6998.205 Electron/35.4.0 Safari/537.36" version="27.0.9">
  <diagram name="Страница — 1" id="IyOr7LMqKPzGeSYKwLsC">
    <mxGraphModel dx="2211" dy="722" grid="1" gridSize="10" guides="1" tooltips="1" connect="1" arrows="1" fold="1" page="1" pageScale="1" pageWidth="1169" pageHeight="827" math="0" shadow="0">
      <root>
        <mxCell id="0" />
        <mxCell id="1" parent="0" />
        <mxCell id="1V2JISVaBjakiTywx9q5-1" value="Безопасность данных" style="ellipse;whiteSpace=wrap;html=1;container=0;" vertex="1" parent="1">
          <mxGeometry x="525" y="40" width="120" height="80" as="geometry" />
        </mxCell>
        <mxCell id="1V2JISVaBjakiTywx9q5-2" value="публичные данные" style="rounded=1;whiteSpace=wrap;html=1;container=0;" vertex="1" parent="1">
          <mxGeometry x="-170" y="200" width="120" height="60" as="geometry" />
        </mxCell>
        <mxCell id="1V2JISVaBjakiTywx9q5-3" value="внутренние данные" style="rounded=1;whiteSpace=wrap;html=1;container=0;" vertex="1" parent="1">
          <mxGeometry x="70" y="200" width="120" height="60" as="geometry" />
        </mxCell>
        <mxCell id="1V2JISVaBjakiTywx9q5-4" value="конфиденциальные данные" style="rounded=1;whiteSpace=wrap;html=1;container=0;" vertex="1" parent="1">
          <mxGeometry x="525" y="200" width="120" height="60" as="geometry" />
        </mxCell>
        <mxCell id="1V2JISVaBjakiTywx9q5-5" value="секретные данные" style="rounded=1;whiteSpace=wrap;html=1;container=0;" vertex="1" parent="1">
          <mxGeometry x="1180" y="200" width="120" height="60" as="geometry" />
        </mxCell>
        <mxCell id="1V2JISVaBjakiTywx9q5-6" value="данные онлайн-тура" style="rounded=1;whiteSpace=wrap;html=1;container=0;" vertex="1" parent="1">
          <mxGeometry x="-170" y="320" width="120" height="60" as="geometry" />
        </mxCell>
        <mxCell id="1V2JISVaBjakiTywx9q5-7" value="" style="endArrow=none;html=1;rounded=0;exitX=0.5;exitY=1;exitDx=0;exitDy=0;entryX=0.5;entryY=0;entryDx=0;entryDy=0;" edge="1" parent="1" source="1V2JISVaBjakiTywx9q5-2" target="1V2JISVaBjakiTywx9q5-6">
          <mxGeometry width="50" height="50" relative="1" as="geometry">
            <mxPoint x="-20" y="330" as="sourcePoint" />
            <mxPoint x="30" y="280" as="targetPoint" />
          </mxGeometry>
        </mxCell>
        <mxCell id="1V2JISVaBjakiTywx9q5-8" value="данные объектов недвижимости" style="rounded=1;whiteSpace=wrap;html=1;container=0;" vertex="1" parent="1">
          <mxGeometry x="70" y="320" width="120" height="60" as="geometry" />
        </mxCell>
        <mxCell id="1V2JISVaBjakiTywx9q5-9" value="" style="endArrow=none;html=1;rounded=0;entryX=0.5;entryY=1;entryDx=0;entryDy=0;exitX=0.5;exitY=0;exitDx=0;exitDy=0;" edge="1" parent="1" source="1V2JISVaBjakiTywx9q5-8" target="1V2JISVaBjakiTywx9q5-3">
          <mxGeometry width="50" height="50" relative="1" as="geometry">
            <mxPoint x="270" y="350" as="sourcePoint" />
            <mxPoint x="320" y="300" as="targetPoint" />
          </mxGeometry>
        </mxCell>
        <mxCell id="1V2JISVaBjakiTywx9q5-10" value="данные клиентов" style="rounded=1;whiteSpace=wrap;html=1;container=0;" vertex="1" parent="1">
          <mxGeometry x="280" y="320" width="120" height="60" as="geometry" />
        </mxCell>
        <mxCell id="1V2JISVaBjakiTywx9q5-11" value="данные сделок по недвижимости" style="rounded=1;whiteSpace=wrap;html=1;container=0;" vertex="1" parent="1">
          <mxGeometry x="464.5" y="320" width="120" height="60" as="geometry" />
        </mxCell>
        <mxCell id="1V2JISVaBjakiTywx9q5-14" value="" style="endArrow=none;html=1;rounded=0;entryX=0;entryY=0.5;entryDx=0;entryDy=0;exitX=0.5;exitY=0;exitDx=0;exitDy=0;" edge="1" parent="1" source="1V2JISVaBjakiTywx9q5-2" target="1V2JISVaBjakiTywx9q5-1">
          <mxGeometry width="50" height="50" relative="1" as="geometry">
            <mxPoint x="370" y="130" as="sourcePoint" />
            <mxPoint x="420" y="80" as="targetPoint" />
          </mxGeometry>
        </mxCell>
        <mxCell id="1V2JISVaBjakiTywx9q5-15" value="" style="endArrow=none;html=1;rounded=0;entryX=0;entryY=1;entryDx=0;entryDy=0;exitX=0.5;exitY=0;exitDx=0;exitDy=0;" edge="1" parent="1" source="1V2JISVaBjakiTywx9q5-3" target="1V2JISVaBjakiTywx9q5-1">
          <mxGeometry width="50" height="50" relative="1" as="geometry">
            <mxPoint x="340" y="200" as="sourcePoint" />
            <mxPoint x="390" y="150" as="targetPoint" />
          </mxGeometry>
        </mxCell>
        <mxCell id="1V2JISVaBjakiTywx9q5-16" value="" style="endArrow=none;html=1;rounded=0;entryX=0.5;entryY=1;entryDx=0;entryDy=0;exitX=0.5;exitY=0;exitDx=0;exitDy=0;" edge="1" parent="1" source="1V2JISVaBjakiTywx9q5-4" target="1V2JISVaBjakiTywx9q5-1">
          <mxGeometry width="50" height="50" relative="1" as="geometry">
            <mxPoint x="740" y="200" as="sourcePoint" />
            <mxPoint x="790" y="150" as="targetPoint" />
          </mxGeometry>
        </mxCell>
        <mxCell id="1V2JISVaBjakiTywx9q5-17" value="" style="endArrow=none;html=1;rounded=0;exitX=1;exitY=0.5;exitDx=0;exitDy=0;entryX=0.5;entryY=0;entryDx=0;entryDy=0;" edge="1" parent="1" source="1V2JISVaBjakiTywx9q5-1" target="1V2JISVaBjakiTywx9q5-5">
          <mxGeometry width="50" height="50" relative="1" as="geometry">
            <mxPoint x="890" y="120" as="sourcePoint" />
            <mxPoint x="940" y="70" as="targetPoint" />
          </mxGeometry>
        </mxCell>
        <mxCell id="1V2JISVaBjakiTywx9q5-18" value="данные сервисов аутентификации" style="rounded=1;whiteSpace=wrap;html=1;container=0;" vertex="1" parent="1">
          <mxGeometry x="1080" y="320" width="120" height="60" as="geometry" />
        </mxCell>
        <mxCell id="1V2JISVaBjakiTywx9q5-19" value="данные Active Directory" style="rounded=1;whiteSpace=wrap;html=1;container=0;" vertex="1" parent="1">
          <mxGeometry x="1290" y="320" width="120" height="60" as="geometry" />
        </mxCell>
        <mxCell id="1V2JISVaBjakiTywx9q5-20" value="" style="endArrow=none;html=1;rounded=0;exitX=0.5;exitY=0;exitDx=0;exitDy=0;" edge="1" parent="1" source="1V2JISVaBjakiTywx9q5-10">
          <mxGeometry width="50" height="50" relative="1" as="geometry">
            <mxPoint x="340" y="290" as="sourcePoint" />
            <mxPoint x="530" y="260" as="targetPoint" />
          </mxGeometry>
        </mxCell>
        <mxCell id="1V2JISVaBjakiTywx9q5-21" value="" style="endArrow=none;html=1;rounded=0;entryX=0.5;entryY=0;entryDx=0;entryDy=0;" edge="1" parent="1" target="1V2JISVaBjakiTywx9q5-13">
          <mxGeometry width="50" height="50" relative="1" as="geometry">
            <mxPoint x="640" y="260" as="sourcePoint" />
            <mxPoint x="820" y="220" as="targetPoint" />
          </mxGeometry>
        </mxCell>
        <mxCell id="1V2JISVaBjakiTywx9q5-22" value="" style="endArrow=none;html=1;rounded=0;entryX=0.25;entryY=1;entryDx=0;entryDy=0;exitX=0.5;exitY=0;exitDx=0;exitDy=0;" edge="1" parent="1" source="1V2JISVaBjakiTywx9q5-11" target="1V2JISVaBjakiTywx9q5-4">
          <mxGeometry width="50" height="50" relative="1" as="geometry">
            <mxPoint x="470" y="470" as="sourcePoint" />
            <mxPoint x="520" y="420" as="targetPoint" />
          </mxGeometry>
        </mxCell>
        <mxCell id="1V2JISVaBjakiTywx9q5-23" value="" style="endArrow=none;html=1;rounded=0;entryX=0.75;entryY=1;entryDx=0;entryDy=0;exitX=0.5;exitY=0;exitDx=0;exitDy=0;" edge="1" parent="1" source="1V2JISVaBjakiTywx9q5-12" target="1V2JISVaBjakiTywx9q5-4">
          <mxGeometry width="50" height="50" relative="1" as="geometry">
            <mxPoint x="680" y="470" as="sourcePoint" />
            <mxPoint x="730" y="420" as="targetPoint" />
          </mxGeometry>
        </mxCell>
        <mxCell id="1V2JISVaBjakiTywx9q5-24" value="" style="endArrow=none;html=1;rounded=0;entryX=0.25;entryY=1;entryDx=0;entryDy=0;exitX=0.5;exitY=0;exitDx=0;exitDy=0;" edge="1" parent="1" source="1V2JISVaBjakiTywx9q5-18" target="1V2JISVaBjakiTywx9q5-5">
          <mxGeometry width="50" height="50" relative="1" as="geometry">
            <mxPoint x="1120" y="470" as="sourcePoint" />
            <mxPoint x="1170" y="420" as="targetPoint" />
          </mxGeometry>
        </mxCell>
        <mxCell id="1V2JISVaBjakiTywx9q5-25" value="" style="endArrow=none;html=1;rounded=0;exitX=0.75;exitY=1;exitDx=0;exitDy=0;entryX=0.5;entryY=0;entryDx=0;entryDy=0;" edge="1" parent="1" source="1V2JISVaBjakiTywx9q5-5" target="1V2JISVaBjakiTywx9q5-19">
          <mxGeometry width="50" height="50" relative="1" as="geometry">
            <mxPoint x="1430" y="270" as="sourcePoint" />
            <mxPoint x="1480" y="220" as="targetPoint" />
          </mxGeometry>
        </mxCell>
        <mxCell id="1V2JISVaBjakiTywx9q5-26" value="&lt;div&gt;потеря данных,&lt;/div&gt;&lt;div&gt;искажение данных,&lt;/div&gt;&lt;div&gt;некачественные данные,&lt;/div&gt;&lt;div&gt;обесценивание данных&lt;/div&gt;" style="rounded=1;whiteSpace=wrap;html=1;container=0;" vertex="1" parent="1">
          <mxGeometry x="-200" y="440" width="180" height="100" as="geometry" />
        </mxCell>
        <mxCell id="1V2JISVaBjakiTywx9q5-34" value="" style="endArrow=none;html=1;rounded=0;entryX=0.5;entryY=1;entryDx=0;entryDy=0;exitX=0.5;exitY=0;exitDx=0;exitDy=0;" edge="1" parent="1" source="1V2JISVaBjakiTywx9q5-26" target="1V2JISVaBjakiTywx9q5-6">
          <mxGeometry width="50" height="50" relative="1" as="geometry">
            <mxPoint x="-310" y="480" as="sourcePoint" />
            <mxPoint x="-260" y="430" as="targetPoint" />
          </mxGeometry>
        </mxCell>
        <mxCell id="1V2JISVaBjakiTywx9q5-36" value="" style="endArrow=none;html=1;rounded=0;entryX=0.5;entryY=1;entryDx=0;entryDy=0;exitX=0.5;exitY=0;exitDx=0;exitDy=0;" edge="1" parent="1">
          <mxGeometry width="50" height="50" relative="1" as="geometry">
            <mxPoint x="339.5" y="440" as="sourcePoint" />
            <mxPoint x="339.5" y="380" as="targetPoint" />
          </mxGeometry>
        </mxCell>
        <mxCell id="1V2JISVaBjakiTywx9q5-37" value="" style="endArrow=none;html=1;rounded=0;entryX=0.5;entryY=1;entryDx=0;entryDy=0;exitX=0.5;exitY=0;exitDx=0;exitDy=0;" edge="1" parent="1">
          <mxGeometry width="50" height="50" relative="1" as="geometry">
            <mxPoint x="524" y="440" as="sourcePoint" />
            <mxPoint x="524" y="380" as="targetPoint" />
          </mxGeometry>
        </mxCell>
        <mxCell id="1V2JISVaBjakiTywx9q5-40" value="" style="endArrow=none;html=1;rounded=0;entryX=0.5;entryY=1;entryDx=0;entryDy=0;exitX=0.5;exitY=0;exitDx=0;exitDy=0;" edge="1" parent="1">
          <mxGeometry width="50" height="50" relative="1" as="geometry">
            <mxPoint x="1139.5" y="440" as="sourcePoint" />
            <mxPoint x="1139.5" y="380" as="targetPoint" />
          </mxGeometry>
        </mxCell>
        <mxCell id="1V2JISVaBjakiTywx9q5-41" value="" style="endArrow=none;html=1;rounded=0;entryX=0.5;entryY=1;entryDx=0;entryDy=0;exitX=0.5;exitY=0;exitDx=0;exitDy=0;" edge="1" parent="1">
          <mxGeometry width="50" height="50" relative="1" as="geometry">
            <mxPoint x="1349.5" y="440" as="sourcePoint" />
            <mxPoint x="1349.5" y="380" as="targetPoint" />
          </mxGeometry>
        </mxCell>
        <mxCell id="1V2JISVaBjakiTywx9q5-42" value="" style="endArrow=none;html=1;rounded=0;entryX=0.5;entryY=1;entryDx=0;entryDy=0;exitX=0.5;exitY=0;exitDx=0;exitDy=0;" edge="1" parent="1">
          <mxGeometry width="50" height="50" relative="1" as="geometry">
            <mxPoint x="129.5" y="440" as="sourcePoint" />
            <mxPoint x="129.5" y="380" as="targetPoint" />
          </mxGeometry>
        </mxCell>
        <mxCell id="1V2JISVaBjakiTywx9q5-44" value="&lt;div&gt;потеря данных,&lt;/div&gt;&lt;div&gt;искажение данных,&lt;/div&gt;&lt;div&gt;некачественные данные,&lt;/div&gt;&lt;div&gt;обесценивание данных&lt;/div&gt;" style="rounded=1;whiteSpace=wrap;html=1;container=0;" vertex="1" parent="1">
          <mxGeometry x="40" y="440" width="180" height="100" as="geometry" />
        </mxCell>
        <mxCell id="1V2JISVaBjakiTywx9q5-45" value="&lt;div&gt;утечка данных,&lt;/div&gt;&lt;div&gt;потеря данных,&lt;/div&gt;&lt;div&gt;искажение данных,&lt;/div&gt;&lt;div&gt;некачественные данные,&lt;/div&gt;&lt;div&gt;обесценивание данных&lt;/div&gt;" style="rounded=1;whiteSpace=wrap;html=1;container=0;" vertex="1" parent="1">
          <mxGeometry x="250" y="440" width="180" height="100" as="geometry" />
        </mxCell>
        <mxCell id="1V2JISVaBjakiTywx9q5-46" value="&lt;div&gt;утечка данных,&lt;/div&gt;&lt;div&gt;потеря данных,&lt;/div&gt;&lt;div&gt;искажение данных,&lt;/div&gt;&lt;div&gt;некачественные данные,&lt;/div&gt;&lt;div&gt;обесценивание данных&lt;/div&gt;" style="rounded=1;whiteSpace=wrap;html=1;container=0;" vertex="1" parent="1">
          <mxGeometry x="434.5" y="440" width="180" height="100" as="geometry" />
        </mxCell>
        <mxCell id="1V2JISVaBjakiTywx9q5-47" value="&lt;div&gt;утечка данных,&lt;/div&gt;&lt;div&gt;потеря данных,&lt;/div&gt;&lt;div&gt;искажение данных,&lt;/div&gt;&lt;div&gt;некачественные данные,&lt;/div&gt;&lt;div&gt;обесценивание данных&lt;/div&gt;" style="rounded=1;whiteSpace=wrap;html=1;container=0;" vertex="1" parent="1">
          <mxGeometry x="620" y="440" width="180" height="100" as="geometry" />
        </mxCell>
        <mxCell id="1V2JISVaBjakiTywx9q5-48" value="&lt;div&gt;утечка данных,&lt;/div&gt;&lt;div&gt;потеря данных,&lt;/div&gt;&lt;div&gt;искажение данных,&lt;/div&gt;&lt;div&gt;некачественные данные,&lt;/div&gt;&lt;div&gt;обесценивание данных&lt;/div&gt;" style="rounded=1;whiteSpace=wrap;html=1;container=0;" vertex="1" parent="1">
          <mxGeometry x="810" y="440" width="180" height="100" as="geometry" />
        </mxCell>
        <mxCell id="1V2JISVaBjakiTywx9q5-12" value="данные собственников" style="rounded=1;whiteSpace=wrap;html=1;container=0;" vertex="1" parent="1">
          <mxGeometry x="650" y="320" width="120" height="60" as="geometry" />
        </mxCell>
        <mxCell id="1V2JISVaBjakiTywx9q5-13" value="данные услуг ЖКХ по собственникам" style="rounded=1;whiteSpace=wrap;html=1;container=0;" vertex="1" parent="1">
          <mxGeometry x="840" y="320" width="120" height="60" as="geometry" />
        </mxCell>
        <mxCell id="1V2JISVaBjakiTywx9q5-38" value="" style="endArrow=none;html=1;rounded=0;entryX=0.5;entryY=1;entryDx=0;entryDy=0;exitX=0.5;exitY=0;exitDx=0;exitDy=0;" edge="1" parent="1">
          <mxGeometry width="50" height="50" relative="1" as="geometry">
            <mxPoint x="709.5" y="440" as="sourcePoint" />
            <mxPoint x="709.5" y="380" as="targetPoint" />
          </mxGeometry>
        </mxCell>
        <mxCell id="1V2JISVaBjakiTywx9q5-39" value="" style="endArrow=none;html=1;rounded=0;entryX=0.5;entryY=1;entryDx=0;entryDy=0;exitX=0.5;exitY=0;exitDx=0;exitDy=0;" edge="1" parent="1">
          <mxGeometry width="50" height="50" relative="1" as="geometry">
            <mxPoint x="899.5" y="440" as="sourcePoint" />
            <mxPoint x="899.5" y="380" as="targetPoint" />
          </mxGeometry>
        </mxCell>
        <mxCell id="1V2JISVaBjakiTywx9q5-50" value="&lt;div&gt;утечка данных,&lt;/div&gt;&lt;div&gt;потеря данных,&lt;/div&gt;&lt;div&gt;искажение данных,&lt;/div&gt;&lt;div&gt;некачественные данные,&lt;/div&gt;&lt;div&gt;обесценивание данных&lt;/div&gt;" style="rounded=1;whiteSpace=wrap;html=1;container=0;" vertex="1" parent="1">
          <mxGeometry x="1050" y="440" width="180" height="100" as="geometry" />
        </mxCell>
        <mxCell id="1V2JISVaBjakiTywx9q5-51" value="&lt;div&gt;утечка данных,&lt;/div&gt;&lt;div&gt;потеря данных,&lt;/div&gt;&lt;div&gt;искажение данных,&lt;/div&gt;&lt;div&gt;некачественные данные,&lt;/div&gt;&lt;div&gt;обесценивание данных&lt;/div&gt;" style="rounded=1;whiteSpace=wrap;html=1;container=0;" vertex="1" parent="1">
          <mxGeometry x="1260" y="440" width="180" height="100" as="geometry" />
        </mxCell>
        <mxCell id="1V2JISVaBjakiTywx9q5-53" value="&lt;div&gt;Общая оценка - низкая. Данные публичные, ценности особой не имеют, могут быть размещены на разных ресурсах.&lt;/div&gt;" style="rounded=1;whiteSpace=wrap;html=1;container=0;" vertex="1" parent="1">
          <mxGeometry x="-200" y="600" width="180" height="100" as="geometry" />
        </mxCell>
        <mxCell id="1V2JISVaBjakiTywx9q5-54" value="" style="endArrow=none;html=1;rounded=0;entryX=0.5;entryY=1;entryDx=0;entryDy=0;exitX=0.5;exitY=0;exitDx=0;exitDy=0;" edge="1" parent="1" source="1V2JISVaBjakiTywx9q5-53">
          <mxGeometry width="50" height="50" relative="1" as="geometry">
            <mxPoint x="-310" y="640" as="sourcePoint" />
            <mxPoint x="-110" y="540" as="targetPoint" />
          </mxGeometry>
        </mxCell>
        <mxCell id="1V2JISVaBjakiTywx9q5-55" value="&lt;div&gt;Общая оценка - средняя. Внутренние данные, высокой ценности не имеют.&lt;/div&gt;" style="rounded=1;whiteSpace=wrap;html=1;container=0;" vertex="1" parent="1">
          <mxGeometry x="40" y="600" width="180" height="100" as="geometry" />
        </mxCell>
        <mxCell id="1V2JISVaBjakiTywx9q5-56" value="" style="endArrow=none;html=1;rounded=0;entryX=0.5;entryY=1;entryDx=0;entryDy=0;exitX=0.5;exitY=0;exitDx=0;exitDy=0;" edge="1" parent="1" source="1V2JISVaBjakiTywx9q5-55">
          <mxGeometry width="50" height="50" relative="1" as="geometry">
            <mxPoint x="-70" y="640" as="sourcePoint" />
            <mxPoint x="130" y="540" as="targetPoint" />
          </mxGeometry>
        </mxCell>
        <mxCell id="1V2JISVaBjakiTywx9q5-57" value="&lt;div&gt;Общая оценка - высокая. Имеют ценность, высокий риск похищения. Персональные данные, попадают под 152-ФЗ.&lt;/div&gt;" style="rounded=1;whiteSpace=wrap;html=1;container=0;" vertex="1" parent="1">
          <mxGeometry x="250" y="600" width="180" height="100" as="geometry" />
        </mxCell>
        <mxCell id="1V2JISVaBjakiTywx9q5-58" value="" style="endArrow=none;html=1;rounded=0;entryX=0.5;entryY=1;entryDx=0;entryDy=0;exitX=0.5;exitY=0;exitDx=0;exitDy=0;" edge="1" parent="1" source="1V2JISVaBjakiTywx9q5-57">
          <mxGeometry width="50" height="50" relative="1" as="geometry">
            <mxPoint x="140" y="640" as="sourcePoint" />
            <mxPoint x="340" y="540" as="targetPoint" />
          </mxGeometry>
        </mxCell>
        <mxCell id="1V2JISVaBjakiTywx9q5-59" value="Общая оценка - высокая. Имеют ценность, высокий риск похищения. Персональные данные, попадают под 152-ФЗ." style="rounded=1;whiteSpace=wrap;html=1;container=0;" vertex="1" parent="1">
          <mxGeometry x="620" y="600" width="180" height="100" as="geometry" />
        </mxCell>
        <mxCell id="1V2JISVaBjakiTywx9q5-60" value="" style="endArrow=none;html=1;rounded=0;entryX=0.5;entryY=1;entryDx=0;entryDy=0;exitX=0.5;exitY=0;exitDx=0;exitDy=0;" edge="1" parent="1" source="1V2JISVaBjakiTywx9q5-59">
          <mxGeometry width="50" height="50" relative="1" as="geometry">
            <mxPoint x="510" y="640" as="sourcePoint" />
            <mxPoint x="710" y="540" as="targetPoint" />
          </mxGeometry>
        </mxCell>
        <mxCell id="1V2JISVaBjakiTywx9q5-61" value="&lt;div&gt;Общая оценка - высокая. Важные данные&lt;span style=&quot;background-color: transparent; color: light-dark(rgb(0, 0, 0), rgb(255, 255, 255));&quot;&gt;, высокий риск похищения и искажения&lt;/span&gt;&lt;span style=&quot;background-color: transparent; color: light-dark(rgb(0, 0, 0), rgb(255, 255, 255));&quot;&gt;.&lt;/span&gt;&lt;/div&gt;" style="rounded=1;whiteSpace=wrap;html=1;container=0;" vertex="1" parent="1">
          <mxGeometry x="434.5" y="600" width="180" height="100" as="geometry" />
        </mxCell>
        <mxCell id="1V2JISVaBjakiTywx9q5-62" value="" style="endArrow=none;html=1;rounded=0;entryX=0.5;entryY=1;entryDx=0;entryDy=0;exitX=0.5;exitY=0;exitDx=0;exitDy=0;" edge="1" parent="1" source="1V2JISVaBjakiTywx9q5-61">
          <mxGeometry width="50" height="50" relative="1" as="geometry">
            <mxPoint x="324.5" y="640" as="sourcePoint" />
            <mxPoint x="524.5" y="540" as="targetPoint" />
          </mxGeometry>
        </mxCell>
        <mxCell id="1V2JISVaBjakiTywx9q5-63" value="Общая оценка - средняя. Высокой ценности не имеют, но это потенциально персональные данные, могут попадать под 152-ФЗ." style="rounded=1;whiteSpace=wrap;html=1;container=0;" vertex="1" parent="1">
          <mxGeometry x="810" y="600" width="180" height="100" as="geometry" />
        </mxCell>
        <mxCell id="1V2JISVaBjakiTywx9q5-64" value="" style="endArrow=none;html=1;rounded=0;entryX=0.5;entryY=1;entryDx=0;entryDy=0;exitX=0.5;exitY=0;exitDx=0;exitDy=0;" edge="1" parent="1" source="1V2JISVaBjakiTywx9q5-63">
          <mxGeometry width="50" height="50" relative="1" as="geometry">
            <mxPoint x="700" y="640" as="sourcePoint" />
            <mxPoint x="900" y="540" as="targetPoint" />
          </mxGeometry>
        </mxCell>
        <mxCell id="1V2JISVaBjakiTywx9q5-65" value="Общая оценка - высокая. Высокий риск похищения.." style="rounded=1;whiteSpace=wrap;html=1;container=0;" vertex="1" parent="1">
          <mxGeometry x="1050" y="600" width="180" height="100" as="geometry" />
        </mxCell>
        <mxCell id="1V2JISVaBjakiTywx9q5-66" value="" style="endArrow=none;html=1;rounded=0;entryX=0.5;entryY=1;entryDx=0;entryDy=0;exitX=0.5;exitY=0;exitDx=0;exitDy=0;" edge="1" parent="1" source="1V2JISVaBjakiTywx9q5-65">
          <mxGeometry width="50" height="50" relative="1" as="geometry">
            <mxPoint x="940" y="640" as="sourcePoint" />
            <mxPoint x="1140" y="540" as="targetPoint" />
          </mxGeometry>
        </mxCell>
        <mxCell id="1V2JISVaBjakiTywx9q5-67" value="Общая оценка - высокая. Высокий риск похищения. Может содержать как секретные данные, так и персональные данные (попадают под 152-ФЗ)" style="rounded=1;whiteSpace=wrap;html=1;container=0;" vertex="1" parent="1">
          <mxGeometry x="1260" y="600" width="180" height="100" as="geometry" />
        </mxCell>
        <mxCell id="1V2JISVaBjakiTywx9q5-68" value="" style="endArrow=none;html=1;rounded=0;entryX=0.5;entryY=1;entryDx=0;entryDy=0;exitX=0.5;exitY=0;exitDx=0;exitDy=0;" edge="1" parent="1" source="1V2JISVaBjakiTywx9q5-67">
          <mxGeometry width="50" height="50" relative="1" as="geometry">
            <mxPoint x="1150" y="640" as="sourcePoint" />
            <mxPoint x="1350" y="540" as="targetPoint" />
          </mxGeometry>
        </mxCell>
      </root>
    </mxGraphModel>
  </diagram>
</mxfile>
